<?xml version="1.0" standalone="no"?>
<!DOCTYPE svg PUBLIC "-//W3C//DTD SVG 20010904//EN"
 "http://www.w3.org/TR/2001/REC-SVG-20010904/DTD/svg10.dtd">
<svg version="1.0" xmlns="http://www.w3.org/2000/svg"
 width="169.000000pt" height="125.000000pt" viewBox="0 0 169.000000 125.000000"
 preserveAspectRatio="xMidYMid meet">

<g transform="translate(0.000000,125.000000) scale(0.100000,-0.100000)"
fill="#000000" stroke="none">
<path d="M520 819 c0 -5 20 -88 46 -182 25 -95 50 -189 55 -209 l10 -38 62 0
62 0 44 165 c24 91 46 163 49 160 2 -2 23 -75 46 -162 l41 -158 62 -3 c52 -2
62 0 67 15 17 59 106 402 106 412 0 6 -17 11 -43 11 l-42 0 -44 -175 c-24 -96
-46 -173 -48 -171 -2 2 -23 79 -47 172 l-43 169 -55 3 -55 3 -43 -166 c-24
-91 -46 -168 -50 -170 -3 -2 -21 58 -40 133 -54 223 -44 202 -95 202 -25 0
-45 -5 -45 -11z"/>
</g>
</svg>
