<svg width="275" height="87" viewBox="0 0 275 87" fill="none" xmlns="http://www.w3.org/2000/svg">
<g filter="url(#filter0_dd_3_30)">
<path d="M18.1237 53L8.73968 17.48H16.6357L24.6517 49.568H22.7077L31.2757 17.48H39.8917L48.1717 49.568H46.3717L54.5797 17.48H61.9717L52.5877 53H42.5797L34.4917 22.232H36.5557L28.1317 53H18.1237ZM79.7268 53.456C76.3508 53.456 73.4068 52.8 70.8948 51.488C68.3988 50.176 66.4548 48.176 65.0628 45.488C63.6868 42.784 62.9988 39.368 62.9988 35.24C62.9988 31.112 63.6868 27.704 65.0628 25.016C66.4548 22.312 68.3988 20.304 70.8948 18.992C73.4068 17.68 76.3508 17.024 79.7268 17.024C83.1028 17.024 86.0388 17.688 88.5348 19.016C91.0468 20.328 92.9908 22.336 94.3668 25.04C95.7588 27.728 96.4548 31.128 96.4548 35.24C96.4548 39.352 95.7588 42.76 94.3668 45.464C92.9908 48.152 91.0468 50.16 88.5348 51.488C86.0228 52.8 83.0868 53.456 79.7268 53.456ZM79.7268 47.168C81.5508 47.168 83.1108 46.776 84.4068 45.992C85.7188 45.192 86.7188 43.928 87.4068 42.2C88.1108 40.472 88.4628 38.208 88.4628 35.408C88.4628 32.496 88.1108 30.16 87.4068 28.4C86.7028 26.624 85.6948 25.336 84.3828 24.536C83.0868 23.72 81.5348 23.312 79.7268 23.312C77.9188 23.312 76.3588 23.704 75.0468 24.488C73.7508 25.272 72.7508 26.528 72.0468 28.256C71.3428 29.984 70.9908 32.256 70.9908 35.072C70.9908 38 71.3348 40.352 72.0228 42.128C72.7268 43.888 73.7268 45.168 75.0228 45.968C76.3348 46.768 77.9028 47.168 79.7268 47.168ZM101.435 53V18.272C102.507 18.032 103.651 17.824 104.867 17.648C106.083 17.456 107.339 17.312 108.635 17.216C109.931 17.104 111.235 17.048 112.547 17.048C117.651 17.048 121.491 17.976 124.067 19.832C126.643 21.672 127.931 24.552 127.931 28.472C127.931 31 127.323 33.12 126.107 34.832C124.891 36.528 123.155 37.808 120.899 38.672C118.659 39.536 115.979 39.968 112.859 39.968C112.155 39.968 111.507 39.96 110.915 39.944C110.323 39.912 109.715 39.88 109.091 39.848V53H101.435ZM122.339 53L110.915 36.584H119.267L130.859 53H122.339ZM113.003 34.16C115.579 34.16 117.491 33.712 118.739 32.816C119.987 31.92 120.611 30.472 120.611 28.472C120.611 27.16 120.347 26.088 119.819 25.256C119.291 24.408 118.491 23.784 117.419 23.384C116.347 22.984 114.987 22.784 113.339 22.784C112.523 22.784 111.771 22.816 111.083 22.88C110.395 22.944 109.731 23.04 109.091 23.168V33.968C109.555 34 109.987 34.04 110.387 34.088C110.803 34.12 111.219 34.144 111.635 34.16C112.067 34.16 112.523 34.16 113.003 34.16ZM155.625 53L143.241 34.904L154.881 17.48H163.089L150.873 35.768L150.993 33.752L164.121 53H155.625ZM134.289 53V17.48H142.089V53H134.289ZM141.009 38.264V31.4H146.313V38.264H141.009ZM165.97 53V17.48H190.834V23.84H173.77V53H165.97ZM170.938 38.84V32.48H188.386V38.84H170.938ZM194.84 53V17.48H202.64V46.52H218.96V53H194.84ZM222.162 53V17.48H229.962V53H222.162ZM258.013 53L249.349 40.208L244.837 34.592L233.029 17.48H241.669L249.445 28.856L253.981 34.52L266.629 53H258.013ZM232.165 53L244.837 34.592L249.445 28.856L257.221 17.48H265.645L253.981 34.52L249.349 40.208L240.685 53H232.165Z" fill="#D7334C"/>
</g>
<defs>
<filter id="filter0_dd_3_30" x="-4" y="0" width="283" height="95" filterUnits="userSpaceOnUse" color-interpolation-filters="sRGB">
<feFlood flood-opacity="0" result="BackgroundImageFix"/>
<feColorMatrix in="SourceAlpha" type="matrix" values="0 0 0 0 0 0 0 0 0 0 0 0 0 0 0 0 0 0 127 0" result="hardAlpha"/>
<feOffset dy="4"/>
<feGaussianBlur stdDeviation="2"/>
<feComposite in2="hardAlpha" operator="out"/>
<feColorMatrix type="matrix" values="0 0 0 0 0 0 0 0 0 0 0 0 0 0 0 0 0 0 0.25 0"/>
<feBlend mode="normal" in2="BackgroundImageFix" result="effect1_dropShadow_3_30"/>
<feColorMatrix in="SourceAlpha" type="matrix" values="0 0 0 0 0 0 0 0 0 0 0 0 0 0 0 0 0 0 127 0" result="hardAlpha"/>
<feOffset dy="4"/>
<feGaussianBlur stdDeviation="2"/>
<feComposite in2="hardAlpha" operator="out"/>
<feColorMatrix type="matrix" values="0 0 0 0 0 0 0 0 0 0 0 0 0 0 0 0 0 0 0.25 0"/>
<feBlend mode="normal" in2="effect1_dropShadow_3_30" result="effect2_dropShadow_3_30"/>
<feBlend mode="normal" in="SourceGraphic" in2="effect2_dropShadow_3_30" result="shape"/>
</filter>
</defs>
</svg>
